<?xml version="1.0" encoding="utf-8"?>
<!-- Generator: Adobe Illustrator 23.0.0, SVG Export Plug-In . SVG Version: 6.00 Build 0)  -->
<svg version="1.1" id="Capa_1" xmlns="http://www.w3.org/2000/svg" xmlns:xlink="http://www.w3.org/1999/xlink" x="0px" y="0px"
	 viewBox="0 0 1366 768" style="enable-background:new 0 0 1366 768;" xml:space="preserve">
<style type="text/css">
	.st0{fill:#FA0F0C;}
	.st1{fill:#80BF1F;}
	.st2{fill:#3E9F2C;}
</style>
<g>
	<g>
		<path class="st0" d="M1130.37,173.7c-74.25-0.17-134.58,59.88-134.75,134.13c-0.04,18.28,3.57,35.7,10.14,51.6v-1.33h29.85
			c13.52,0,24.75,2.11,33.69,6.32c8.93,4.2,16.01,9.95,21.24,17.22c5.23,7.27,8.87,15.89,10.91,25.84
			c2.04,9.94,3.06,20.77,3.06,32.48c6.97,1.34,14.08,2.3,21.39,2.52c29.83-37.12,73.04-63,122.31-70.32
			c10.3-18.95,16.25-40.61,16.3-63.7C1264.68,234.2,1204.63,173.87,1130.37,173.7z"/>
		<g>
			<path class="st1" d="M1086.21,108.54c-6.66-1.51-13.59-2.34-20.72-2.37c-41.64-0.15-76.93,26.45-88.55,63.12
				c6.66,1.51,13.59,2.34,20.72,2.37C1039.31,171.82,1074.59,145.22,1086.21,108.54z"/>
			<path class="st1" d="M1277.49,369.69c-9.91,0-19.63,0.78-29.14,2.22c-0.78,1.44-1.52,2.91-2.35,4.31
				c2.72,2.1,5.67,4.34,8.63,6.58c-1.28,2.13-2.6,4.23-3.99,6.29c-3.29-1.73-6.56-3.45-9.62-5.02c-1.43,2.09-2.93,4.13-4.48,6.13
				c2.44,2.42,5.06,5,7.72,7.59c-1.54,1.96-3.12,3.87-4.76,5.74c-3.05-2.13-6.06-4.23-8.9-6.17c-1.68,1.89-3.4,3.75-5.18,5.54
				c2.12,2.71,4.4,5.59,6.71,8.5c-1.77,1.75-3.58,3.44-5.44,5.1c-2.76-2.5-5.5-4.96-8.08-7.24c-1.9,1.67-3.85,3.28-5.84,4.84
				c1.76,2.95,3.67,6.1,5.61,9.28c-1.97,1.51-3.98,2.98-6.02,4.39c-2.42-2.8-4.82-5.59-7.08-8.17c-2.1,1.42-4.25,2.76-6.43,4.06
				c1.37,3.14,2.88,6.51,4.4,9.89c-2.14,1.25-4.32,2.45-6.52,3.59c-2.05-3.09-4.09-6.17-6.02-9.01c-2.26,1.14-4.54,2.23-6.87,3.25
				c0.97,3.3,2.05,6.84,3.13,10.4c-2.28,0.97-4.58,1.89-6.91,2.75c-1.65-3.33-3.29-6.65-4.84-9.72c-2.38,0.85-4.8,1.62-7.24,2.34
				c0.55,3.39,1.17,7.03,1.79,10.68c-2.38,0.68-4.78,1.29-7.21,1.85c-1.21-3.5-2.42-6.99-3.57-10.22c-2.47,0.54-4.95,1.03-7.47,1.43
				c0.12,3.44,0.27,7.13,0.43,10.85c-2.44,0.37-4.91,0.68-7.39,0.92c-0.76-3.64-1.52-7.26-2.26-10.62
				c-2.51,0.23-5.03,0.37-7.57,0.46c-0.31,3.42-0.62,7.09-0.92,10.79c-1.25,0.03-2.5,0.09-3.76,0.09c-1.26,0-2.5-0.06-3.76-0.09
				c-0.28-3.36-0.56-6.69-0.84-9.84c0.25-0.31,0.52-0.61,0.77-0.92c-0.01,0-0.02,0-0.03,0c-15.17,18.97-26.87,40.82-34.09,64.64
				c13.99,3.21,28.54,4.97,43.51,4.97c87.41,0,161.28-57.92,185.38-137.46C1307.01,371.44,1292.46,369.69,1277.49,369.69z
				 M1259.82,373.33c-2-0.75-3.98-1.49-5.92-2.21c2.43-0.3,4.87-0.56,7.33-0.76C1260.75,371.35,1260.31,372.36,1259.82,373.33z"/>
			<path class="st2" d="M1125.47,443.43c0.28,3.15,0.56,6.48,0.84,9.84c1.25,0.03,2.5,0.09,3.76,0.09c1.26,0,2.5-0.06,3.76-0.09
				c0.31-3.69,0.61-7.37,0.92-10.79c2.54-0.09,5.07-0.24,7.57-0.46c0.74,3.36,1.5,6.98,2.26,10.62c2.48-0.25,4.95-0.55,7.39-0.92
				c-0.16-3.71-0.31-7.41-0.43-10.85c2.52-0.4,5-0.89,7.47-1.43c1.15,3.23,2.36,6.72,3.57,10.22c2.43-0.56,4.83-1.17,7.21-1.85
				c-0.62-3.65-1.24-7.29-1.79-10.68c2.44-0.72,4.86-1.49,7.24-2.34c1.55,3.07,3.2,6.39,4.84,9.72c2.33-0.86,4.63-1.78,6.91-2.75
				c-1.08-3.56-2.16-7.1-3.13-10.4c2.33-1.02,4.62-2.11,6.87-3.25c1.92,2.84,3.97,5.92,6.02,9.01c2.21-1.14,4.38-2.34,6.52-3.59
				c-1.52-3.38-3.02-6.75-4.4-9.89c2.18-1.3,4.33-2.64,6.43-4.06c2.26,2.57,4.67,5.36,7.08,8.17c2.05-1.41,4.05-2.88,6.02-4.39
				c-1.94-3.18-3.85-6.32-5.61-9.28c1.99-1.56,3.94-3.17,5.84-4.84c2.58,2.28,5.31,4.75,8.08,7.24c1.86-1.66,3.67-3.35,5.44-5.1
				c-2.31-2.91-4.6-5.79-6.71-8.5c1.78-1.79,3.5-3.65,5.18-5.54c2.83,1.94,5.85,4.04,8.9,6.17c1.63-1.87,3.22-3.79,4.76-5.74
				c-2.66-2.6-5.28-5.17-7.72-7.59c1.55-2,3.05-4.04,4.48-6.13c3.06,1.57,6.33,3.29,9.62,5.02c1.38-2.06,2.71-4.16,3.99-6.29
				c-2.96-2.24-5.91-4.48-8.63-6.58c0.83-1.41,1.57-2.87,2.35-4.31c-49.25,7.44-92.4,33.41-122.15,70.61c0.01,0,0.02,0,0.03,0
				C1125.98,442.82,1125.71,443.12,1125.47,443.43z"/>
		</g>
		<path class="st2" d="M103.56,567.47c0,3.58-0.57,5.81-1.72,6.7c-1.14,0.9-3.63,1.34-7.46,1.34H54.19c-3.07,0-5.3-0.57-6.7-1.72
			c-1.41-1.14-2.11-3.25-2.11-6.31V330.54c0-7.14,1.53-12.82,4.6-17.03c3.06-4.21,9.19-6.31,18.37-6.31h93.77
			c13.78,0,26.22,2.11,37.32,6.31c11.1,4.21,20.54,10.02,28.32,17.42c7.78,7.41,13.71,16.21,17.8,26.41
			c4.08,10.2,6.12,21.43,6.12,33.68c0,6.64-1.02,14.87-3.07,24.68c-2.04,9.83-6.44,19.4-13.2,28.71
			c-6.76,9.32-16.59,17.29-29.47,23.92c-12.89,6.64-30.05,9.95-51.48,9.95h-50.91V567.47z M191.6,394.84
			c0-3.57-0.51-7.46-1.53-11.67c-1.02-4.21-3-8.17-5.93-11.86c-2.94-3.7-6.89-6.76-11.86-9.19c-4.98-2.43-11.29-3.64-18.95-3.64
			h-49.76v72.73h50.15c13.01,0,22.58-3.51,28.7-10.53C188.54,413.66,191.6,405.05,191.6,394.84z"/>
		<path class="st2" d="M373.52,519.62h-87.65l-14.93,48.61c-0.76,2.55-1.85,4.4-3.25,5.55c-1.41,1.15-3.9,1.72-7.47,1.72h-44.78
			c-2.81,0-4.53-0.77-5.17-2.3c-0.64-1.53-0.7-3.31-0.19-5.36l79.61-239.99c1.27-4.33,2.74-7.85,4.4-10.53
			c1.66-2.68,3.57-4.78,5.75-6.31c2.16-1.53,4.72-2.62,7.65-3.26c2.93-0.64,6.32-0.96,10.14-0.96h22.96c4.34,0,8.04,0.19,11.1,0.57
			c3.06,0.38,5.75,1.34,8.04,2.87c2.3,1.53,4.28,3.7,5.93,6.51c1.66,2.81,3.26,6.51,4.78,11.1l79.62,239.99
			c0.5,1.53,0.5,3.19,0,4.97c-0.51,1.79-2.17,2.68-4.98,2.68h-45.55c-2.82,0-5.17-0.32-7.08-0.96c-1.92-0.64-3.26-2.36-4.02-5.17
			L373.52,519.62z M299.65,472.54h60.09l-14.54-48.79l-14.16-54.94h-2.3l-14.55,54.94L299.65,472.54z"/>
		<path class="st2" d="M518.8,574.16c-1.02,0.9-3.45,1.34-7.27,1.34h-40.58c-3.06,0-5.29-0.57-6.7-1.72
			c-1.4-1.14-2.11-3.25-2.11-6.31V378c0-9.19,1.21-17.99,3.63-26.41c2.43-8.42,6.38-15.94,11.87-22.58
			c5.48-6.63,12.69-11.93,21.63-15.89c8.93-3.95,20.03-5.93,33.3-5.93h111.76c3.31,0,5.41,0.64,6.31,1.91
			c0.89,1.28,1.34,3.7,1.34,7.27v32.53c0,3.32-0.57,5.55-1.72,6.7c-1.15,1.14-3.13,1.72-5.93,1.72h-99.14
			c-9.95,0-16.59,2.23-19.9,6.7c-3.32,4.47-4.97,10.14-4.97,17.03v35.22h108.7c3.07,0,5.04,0.57,5.93,1.72
			c0.89,1.14,1.34,3.63,1.34,7.46v29.85c0,3.06-0.51,5.3-1.53,6.7c-1.02,1.41-2.94,2.11-5.75,2.11h-108.7v103.35
			C520.33,571.04,519.82,573.27,518.8,574.16z"/>
		<path class="st2" d="M777.15,519.62H689.5l-14.93,48.61c-0.77,2.55-1.86,4.4-3.26,5.55c-1.41,1.15-3.89,1.72-7.46,1.72h-44.78
			c-2.8,0-4.53-0.77-5.17-2.3c-0.64-1.53-0.7-3.31-0.19-5.36l79.61-239.99c1.28-4.33,2.74-7.85,4.4-10.53
			c1.66-2.68,3.57-4.78,5.75-6.31c2.16-1.53,4.72-2.62,7.66-3.26c2.93-0.64,6.31-0.96,10.14-0.96h22.97c4.33,0,8.04,0.19,11.1,0.57
			c3.07,0.38,5.75,1.34,8.04,2.87c2.3,1.53,4.27,3.7,5.93,6.51c1.66,2.81,3.26,6.51,4.79,11.1l79.61,239.99
			c0.5,1.53,0.5,3.19,0,4.97c-0.51,1.79-2.17,2.68-4.98,2.68h-45.55c-2.81,0-5.17-0.32-7.08-0.96c-1.91-0.64-3.26-2.36-4.02-5.17
			L777.15,519.62z M703.29,472.54h60.09l-14.54-48.79l-14.16-54.94h-2.3l-14.55,54.94L703.29,472.54z"/>
		<path class="st2" d="M920.78,573.97c-1.15,1.02-3.64,1.53-7.46,1.53h-40.57c-3.06,0-5.3-0.57-6.7-1.72
			c-1.41-1.14-2.11-3.25-2.11-6.31V315.61c0-3.06,0.7-5.17,2.11-6.31c1.4-1.15,3.63-1.72,6.7-1.72h40.57c3.82,0,6.31,0.51,7.46,1.53
			c1.15,1.02,1.72,3.19,1.72,6.51v251.85C922.5,570.78,921.93,572.95,920.78,573.97z"/>
		<path class="st2" d="M970.55,575.5c-9.19,0-15.32-1.85-18.37-5.55c-3.07-3.7-4.6-9.63-4.6-17.8V330.92
			c0-8.16,1.53-14.16,4.6-17.99c3.06-3.83,9.18-5.74,18.37-5.74h71.58c22.45,0,41.46,3.58,57.03,10.71
			c15.56,7.15,28.19,16.72,37.89,28.71c9.7,12,16.71,26.09,21.06,42.3c4.33,16.21,6.51,33.24,6.51,51.1
			c0,17.61-1.91,34.58-5.75,50.91c-3.82,16.33-10.33,30.75-19.52,43.25c-9.19,12.51-21.38,22.52-36.55,30.04
			c-15.18,7.53-34,11.29-56.45,11.29H970.55z M1104.51,440.01c0-11.73-1.02-22.58-3.06-32.54c-2.04-9.95-5.68-18.56-10.91-25.84
			c-5.23-7.27-12.31-13.01-21.24-17.22c-8.94-4.21-20.16-6.32-33.69-6.32h-29.85v166.12h31c13.26,0,24.3-2.11,33.11-6.32
			c8.8-4.21,15.75-10.01,20.86-17.42c5.1-7.39,8.68-16.27,10.72-26.6C1103.49,463.55,1104.51,452.26,1104.51,440.01z"/>
	</g>
</g>
</svg>
