<?xml version="1.0" encoding="UTF-8" standalone="no"?>
<!-- Created with Inkscape (http://www.inkscape.org/) -->

<svg
   xmlns:dc="http://purl.org/dc/elements/1.1/"
   xmlns:cc="http://creativecommons.org/ns#"
   xmlns:rdf="http://www.w3.org/1999/02/22-rdf-syntax-ns#"
   xmlns:svg="http://www.w3.org/2000/svg"
   xmlns="http://www.w3.org/2000/svg"
   xmlns:sodipodi="http://sodipodi.sourceforge.net/DTD/sodipodi-0.dtd"
   xmlns:inkscape="http://www.inkscape.org/namespaces/inkscape"
   width="350"
   height="150"
   viewBox="0 0 350 150"
   id="svg2"
   version="1.1"
   inkscape:version="0.91 r13725"
   sodipodi:docname="unido---united-nations-industrial-development-organization.svg">
  <defs
     id="defs4">
    <clipPath
       id="clipPath18"
       clipPathUnits="userSpaceOnUse">
      <path
         inkscape:connector-curvature="0"
         id="path20"
         d="M 0,841 595,841 595,0 0,0 0,841 Z" />
    </clipPath>
    <clipPath
       id="clipPath24"
       clipPathUnits="userSpaceOnUse">
      <path
         inkscape:connector-curvature="0"
         id="path26"
         d="m 0.06,840.96 594.96,0 0,-840.96 -594.96,0 0,840.96 z" />
    </clipPath>
    <clipPath
       id="clipPath36"
       clipPathUnits="userSpaceOnUse">
      <path
         inkscape:connector-curvature="0"
         id="path38"
         d="m 220.925,538.98 c 0,-21.398 -17.367,-38.765 -38.765,-38.765 -21.398,0 -38.765,17.367 -38.765,38.765 0,21.398 17.367,38.765 38.765,38.765 21.398,0 38.765,-17.367 38.765,-38.765 z" />
    </clipPath>
    <clipPath
       id="clipPath42"
       clipPathUnits="userSpaceOnUse">
      <path
         inkscape:connector-curvature="0"
         id="path44"
         d="M 0,841 595,841 595,0 0,0 0,841 Z" />
    </clipPath>
    <clipPath
       id="clipPath48"
       clipPathUnits="userSpaceOnUse">
      <path
         inkscape:connector-curvature="0"
         id="path50"
         d="m 0.06,840.96 594.96,0 0,-840.96 -594.96,0 0,840.96 z" />
    </clipPath>
    <clipPath
       id="clipPath60"
       clipPathUnits="userSpaceOnUse">
      <path
         inkscape:connector-curvature="0"
         id="path62"
         d="m 335.52,537.24 c 0,-21.398 -17.364,-38.765 -38.76,-38.765 -21.395,0 -38.76,17.367 -38.76,38.765 0,21.398 17.365,38.765 38.76,38.765 21.396,0 38.76,-17.367 38.76,-38.765 z" />
    </clipPath>
    <clipPath
       id="clipPath66"
       clipPathUnits="userSpaceOnUse">
      <path
         inkscape:connector-curvature="0"
         id="path68"
         d="M 0,841 595,841 595,0 0,0 0,841 Z" />
    </clipPath>
    <clipPath
       id="clipPath72"
       clipPathUnits="userSpaceOnUse">
      <path
         inkscape:connector-curvature="0"
         id="path74"
         d="m 0.06,840.96 594.96,0 0,-840.96 -594.96,0 0,840.96 z" />
    </clipPath>
    <clipPath
       id="clipPath84"
       clipPathUnits="userSpaceOnUse">
      <path
         inkscape:connector-curvature="0"
         id="path86"
         d="m 450.245,538.56 c 0,-21.398 -17.367,-38.765 -38.765,-38.765 -21.398,0 -38.765,17.367 -38.765,38.765 0,21.398 17.367,38.765 38.765,38.765 21.398,0 38.765,-17.367 38.765,-38.765 z" />
    </clipPath>
    <clipPath
       id="clipPath90"
       clipPathUnits="userSpaceOnUse">
      <path
         inkscape:connector-curvature="0"
         id="path92"
         d="M 0,841 595,841 595,0 0,0 0,841 Z" />
    </clipPath>
    <clipPath
       id="clipPath96"
       clipPathUnits="userSpaceOnUse">
      <path
         inkscape:connector-curvature="0"
         id="path98"
         d="m 0.06,840.96 594.96,0 0,-840.96 -594.96,0 0,840.96 z" />
    </clipPath>
    <clipPath
       id="clipPath108"
       clipPathUnits="userSpaceOnUse">
      <path
         inkscape:connector-curvature="0"
         id="path110"
         d="M 0,841 595,841 595,0 0,0 0,841 Z" />
    </clipPath>
    <clipPath
       id="clipPath114"
       clipPathUnits="userSpaceOnUse">
      <path
         inkscape:connector-curvature="0"
         id="path116"
         d="m 0.06,840.96 594.96,0 0,-840.96 -594.96,0 0,840.96 z" />
    </clipPath>
    <clipPath
       id="clipPath168"
       clipPathUnits="userSpaceOnUse">
      <path
         inkscape:connector-curvature="0"
         id="path170"
         d="m 252.11,782.54 77.23,0 0,-77.6 -77.23,0 0,77.6 z"
         style="clip-rule:evenodd" />
    </clipPath>
    <clipPath
       id="clipPath174"
       clipPathUnits="userSpaceOnUse">
      <path
         inkscape:connector-curvature="0"
         id="path176"
         d="M 0,841 595,841 595,0 0,0 0,841 Z" />
    </clipPath>
    <clipPath
       id="clipPath180"
       clipPathUnits="userSpaceOnUse">
      <path
         inkscape:connector-curvature="0"
         id="path182"
         d="m 0.06,840.96 594.96,0 0,-840.96 -594.96,0 0,840.96 z" />
    </clipPath>
  </defs>
  <sodipodi:namedview
     id="base"
     pagecolor="#ffffff"
     bordercolor="#666666"
     borderopacity="1.0"
     inkscape:pageopacity="0.0"
     inkscape:pageshadow="2"
     inkscape:zoom="1.979899"
     inkscape:cx="141.1506"
     inkscape:cy="95.569526"
     inkscape:document-units="px"
     inkscape:current-layer="layer1"
     showgrid="false"
     units="px"
     inkscape:window-width="1440"
     inkscape:window-height="851"
     inkscape:window-x="0"
     inkscape:window-y="1"
     inkscape:window-maximized="1" />
  <metadata
     id="metadata7">
    <rdf:RDF>
      <cc:Work
         rdf:about="">
        <dc:format>image/svg+xml</dc:format>
        <dc:type
           rdf:resource="http://purl.org/dc/dcmitype/StillImage" />
        <dc:title></dc:title>
      </cc:Work>
    </rdf:RDF>
  </metadata>
  <g
     inkscape:label="Layer 1"
     inkscape:groupmode="layer"
     id="layer1"
     transform="translate(0,-902.36216)">
    <g
       transform="matrix(0.99933635,0,0,-0.99933635,-80.757432,1740.4641)"
       inkscape:label="sid_services"
       id="g10">
      <g
         style="fill:#4b92db;fill-opacity:1"
         transform="matrix(2.0762503,0,0,2.0762503,-349.81203,-781.85317)"
         id="g164">
        <g
           style="fill:#4b92db;fill-opacity:1"
           clip-path="url(#clipPath168)"
           id="g166">
          <g
             style="fill:#4b92db;fill-opacity:1"
             clip-path="url(#clipPath174)"
             id="g172">
            <g
               style="fill:#4b92db;fill-opacity:1"
               clip-path="url(#clipPath180)"
               id="g178">
              <path
                 inkscape:connector-curvature="0"
                 id="path184"
                 style="fill:#4b92db;fill-opacity:1;fill-rule:nonzero;stroke:none"
                 d="m 266.05,716.57 c 1.841,-0.535 3.435,-1.194 7.603,-0.475 5.168,0.891 4.514,1.901 8.613,1.841 3.564,-0.051 8.019,-1.188 8.851,-1.188 0.831,0 5.583,1.307 8.256,1.188 2.673,-0.119 5.227,-1.247 7.366,-1.544 2.138,-0.297 1.366,-1.188 8.553,-0.832 -5.524,-3.386 -8.969,-2.376 -11.523,-2.019 -2.554,0.356 -9.623,3.623 -10.573,2.376 2.197,-1.129 5.821,-3.545 6.652,-4.931 0.179,-0.297 -1.128,-0.415 -1.128,-0.415 0,0 -5.762,5.167 -7.663,5.167 -1.901,0 -6.17,-3.823 -7.425,-5.286 -0.356,-0.416 -2.425,-0.43 -2.257,-0.178 1.544,2.316 5.414,4.459 7.425,5.464 1.307,0.654 -1.374,0.728 -1.723,0.654 -2.791,-0.594 -3.326,-1.663 -8.672,-2.851 -8.973,-1.994 -12.355,3.029 -12.355,3.029" />
              <path
                 inkscape:connector-curvature="0"
                 id="path186"
                 style="fill:#4b92db;fill-opacity:1;fill-rule:nonzero;stroke:none"
                 d="m 303.858,718.441 c 1.752,1.485 3,3.653 4.96,7.158 1.226,2.193 3.712,3.742 4.752,5.435 -0.416,-3.742 -2.673,-9.415 -5.94,-11.316 1.722,0.119 9.741,1.663 13.602,4.633 -1.574,-4.098 -6.506,-6.236 -9.147,-6.712 -3.297,-0.594 -8.227,0.802 -8.227,0.802" />
              <path
                 inkscape:connector-curvature="0"
                 id="path188"
                 style="fill:#4b92db;fill-opacity:1;fill-rule:nonzero;stroke:none"
                 d="m 317.253,736.113 0.772,0 c -0.327,-2.139 -0.345,-4.254 -0.446,-5.02 -0.237,-1.811 -1.307,-4.039 -1.425,-5.227 3.861,2.465 8.672,6.623 9.86,8.969 -0.327,-3.445 -1.544,-6.741 -5.791,-9.504 -4.248,-2.762 -7.247,-3.237 -7.247,-3.237 0.416,2.049 1.336,7.663 1.841,8.791 0.505,1.129 2.436,5.228 2.436,5.228" />
              <path
                 inkscape:connector-curvature="0"
                 id="path190"
                 style="fill:#4b92db;fill-opacity:1;fill-rule:nonzero;stroke:none"
                 d="m 319.361,736.113 1.99,-0.03 c 0,0 0.178,-0.357 0.208,-0.832 0.327,0.327 0.683,0.594 0.802,0.891 0.594,0 3.059,0 3.059,0 -1.515,-1.782 -5.247,-5.329 -5.435,-4.93 -0.713,1.515 -0.624,4.901 -0.624,4.901" />
              <path
                 inkscape:connector-curvature="0"
                 id="path192"
                 style="fill:#4b92db;fill-opacity:1;fill-rule:nonzero;stroke:none"
                 d="m 260.466,724.381 c 1.01,-1.841 4.485,-5.138 5.821,-5.673 1.337,-0.534 6.297,-1.96 11.494,0.119 -2.346,2.495 -5.049,8.732 -8.88,11.197 -0.297,-2.198 1.812,-7.276 5.227,-9.92 -2.287,0.208 -10.365,1.723 -13.662,4.277" />
              <path
                 inkscape:connector-curvature="0"
                 id="path194"
                 style="fill:#4b92db;fill-opacity:1;fill-rule:nonzero;stroke:none"
                 d="m 265.337,726.074 c 0,0 -3.029,3.326 -4.22,4.036 -2.364,1.407 -5.581,4.755 -5.581,4.755 1.426,-4.395 2.792,-10.276 13.454,-12.028 -0.059,3.415 -2.346,10.959 -4.039,13.216 -0.297,0 -1.099,0 -1.099,0 -0.03,-2.792 0.891,-6.89 1.99,-10.009 l -0.505,0.03" />
              <path
                 inkscape:connector-curvature="0"
                 id="path196"
                 style="fill:#4b92db;fill-opacity:1;fill-rule:nonzero;stroke:none"
                 d="m 257.259,736.113 4.989,-0.06 c 0,0 -0.083,-3.73 0.238,-4.692 0.059,-0.179 -2.079,0.712 -3.208,2.138 -0.756,0.956 -2.019,2.614 -2.019,2.614" />
              <path
                 inkscape:connector-curvature="0"
                 id="path198"
                 style="fill:#4b92db;fill-opacity:1;fill-rule:nonzero;stroke:none"
                 d="m 312.53,773.535 c 2.941,-0.654 7.425,-4.366 7.188,-8.524 -6.237,4.781 -7.188,8.524 -7.188,8.524" />
              <path
                 inkscape:connector-curvature="0"
                 id="path200"
                 style="fill:#4b92db;fill-opacity:1;fill-rule:nonzero;stroke:none"
                 d="m 318.619,772.287 c 1.485,-0.119 5.108,-4.277 4.009,-13.127 -3.653,2.019 -8.88,7.989 -8.464,9.177 1.633,-1.277 6.059,-4.188 6.653,-5.435 -0.387,2.584 -0.743,4.336 -0.891,5.287 -0.149,0.95 -1.487,4.113 -1.307,4.098" />
              <path
                 inkscape:connector-curvature="0"
                 id="path202"
                 style="fill:#4b92db;fill-opacity:1;fill-rule:nonzero;stroke:none"
                 d="m 323.638,766.407 c 1.723,-2.287 3.119,-4.723 3,-9.712 l -2.941,0.029 c -0.118,2.109 0.06,4.188 0.179,5.287 0.119,1.099 -0.238,4.396 -0.238,4.396" />
              <path
                 inkscape:connector-curvature="0"
                 id="path204"
                 style="fill:#4b92db;fill-opacity:1;fill-rule:nonzero;stroke:none"
                 d="m 317.698,762.011 c 2.732,-1.485 3.742,-3.237 4.722,-5.287 -0.712,0 -2.732,0 -2.732,0 -0.564,0.832 -1.99,5.287 -1.99,5.287" />
              <path
                 inkscape:connector-curvature="0"
                 id="path206"
                 style="fill:#4b92db;fill-opacity:1;fill-rule:nonzero;stroke:none"
                 d="m 261.862,765.367 c 0.238,3.534 3.594,7.989 7.93,9.059 0.588,0.145 -2.584,-4.158 -3.95,-5.287 -0.991,-0.819 -3.98,-3.772 -3.98,-3.772" />
              <path
                 inkscape:connector-curvature="0"
                 id="path208"
                 style="fill:#4b92db;fill-opacity:1;fill-rule:nonzero;stroke:none"
                 d="m 262.991,772.228 c -4.871,-3.445 -4.426,-9.564 -3.653,-12.979 2.851,2.613 8.85,8.227 8.375,9.86 -2.049,-1.93 -3.177,-2.648 -4.307,-3.296 -1.395,-0.802 -1.752,-1.782 -2.346,-2.079 -0.356,2.554 1.931,8.494 1.931,8.494" />
              <path
                 inkscape:connector-curvature="0"
                 id="path210"
                 style="fill:#4b92db;fill-opacity:1;fill-rule:nonzero;stroke:none"
                 d="m 257.942,766.941 c -1.574,-2.465 -3.208,-6.445 -2.495,-10.157 l 2.821,-0.06 c -0.089,1.753 -0.564,3.861 -0.534,4.96 0.029,1.099 0.208,5.257 0.208,5.257" />
              <path
                 inkscape:connector-curvature="0"
                 id="path212"
                 style="fill:#4b92db;fill-opacity:1;fill-rule:nonzero;stroke:none"
                 d="m 264.03,762.516 c -0.475,-2.762 -1.663,-4.782 -2.524,-5.792 l -2.792,0 c 1.039,1.634 5.316,5.792 5.316,5.792" />
              <path
                 inkscape:connector-curvature="0"
                 id="path214"
                 style="fill:#4b92db;fill-opacity:1;fill-rule:nonzero;stroke:none"
                 d="m 306.264,733.781 3.831,-3.787" />
              <path
                 inkscape:connector-curvature="0"
                 id="path216"
                 style="fill:#4b92db;fill-opacity:1;fill-rule:nonzero;stroke:none"
                 d="m 313.729,765.115 c -1.681,2.466 -3.735,4.639 -6.103,6.458 -2.393,1.84 -5.047,3.27 -7.887,4.253 -2.938,1.016 -6.019,1.532 -9.157,1.532 -3.138,0 -6.219,-0.516 -9.157,-1.532 -2.84,-0.983 -5.494,-2.413 -7.887,-4.253 -2.368,-1.819 -4.422,-3.992 -6.103,-6.458 -1.707,-2.503 -3.047,-5.485 -3.865,-8.391 l 0.916,-0.002 c 0.793,2.813 2.032,5.468 3.685,7.891 0.986,1.447 2.105,2.789 3.343,4.014 l 3.275,-3.308 c -0.745,-0.737 -1.439,-1.525 -2.077,-2.363 -1.385,-1.816 -2.592,-4.033 -3.366,-6.172 l 0.952,-0.092 c 0.742,2.054 1.793,3.98 3.122,5.724 0.613,0.804 1.28,1.562 1.996,2.27 l 3.273,-3.306 c -0.942,-0.931 -2.289,-2.565 -3.358,-4.656 l 0.978,-0.084 c 0.781,1.526 1.798,2.911 3.007,4.107 l 3.229,-3.261 c -0.115,-0.107 -0.598,-0.65 -0.71,-0.762 l 1.099,0 c 0.111,0.111 0.124,0.023 0.238,0.128 l 0.084,-0.085 0.633,0.627 -0.036,0.037 c 1.746,1.363 3.848,2.157 6.076,2.287 l 0,-2.994 0.891,0 0,3.011 c 2.838,-0.06 5.307,-0.997 7.321,-3.011 l 0.356,0 0.358,0.278 3.382,3.347 c 1.039,-1.102 1.891,-2.265 2.586,-3.625 l 0.995,0 c -0.737,1.442 -1.844,3.085 -2.947,4.252 l 3.307,3.274 c 0.554,-0.581 1.077,-1.193 1.566,-1.834 1.329,-1.744 2.38,-3.67 3.122,-5.724 l 0.966,0.032 c -0.773,2.14 -1.995,4.416 -3.38,6.232 -0.511,0.672 -1.059,1.313 -1.64,1.921 l 3.308,3.274 c 1.052,-1.094 2.013,-2.276 2.873,-3.538 1.653,-2.423 2.892,-5.078 3.685,-7.891 l 0.946,0.002 c -0.818,2.906 -2.188,5.888 -3.895,8.391 z m -6.646,5.752 c 0.845,-0.649 1.649,-1.345 2.408,-2.084 l -3.308,-3.275 c -0.8,0.773 -1.657,1.487 -2.566,2.137 -3.755,2.681 -8.175,4.119 -12.797,4.167 l 0,4.653 c 2.956,-0.025 5.857,-0.523 8.627,-1.481 2.75,-0.951 5.319,-2.336 7.636,-4.117 z m -16.263,0.054 c 4.435,-0.048 8.676,-1.429 12.279,-4.002 0.868,-0.619 1.686,-1.301 2.45,-2.038 l -3.307,-3.274 c -0.827,0.788 -1.735,1.493 -2.712,2.103 -2.612,1.633 -5.619,2.514 -8.71,2.557 l 0,4.654 z m -18.662,-1.678 c 0.614,0.569 1.255,1.111 1.923,1.624 2.317,1.781 4.886,3.166 7.636,4.117 2.64,0.913 5.399,1.408 8.212,1.475 l 0,-4.655 c -4.472,-0.127 -8.74,-1.559 -12.382,-4.159 -0.739,-0.529 -1.444,-1.1 -2.112,-1.711 l -3.277,3.309 z m 5.907,-2.324 c 3.49,2.493 7.579,3.867 11.864,3.994 l 0,-4.657 c -2.945,-0.113 -5.8,-0.987 -8.295,-2.546 -0.815,-0.509 -1.583,-1.085 -2.295,-1.719 l -3.277,3.309 c 0.634,0.578 1.302,1.119 2.003,1.619 z m 7.905,-7.222 c -0.991,-0.419 -1.91,-0.965 -2.747,-1.63 l -3.256,3.289 c 0.665,0.589 1.38,1.124 2.139,1.599 2.354,1.47 5.045,2.297 7.823,2.409 l 0,-4.753 c -1.369,-0.074 -2.698,-0.38 -3.959,-0.914 z m 4.85,0.929 0,4.75 c 2.924,-0.043 5.767,-0.878 8.238,-2.421 0.918,-0.574 1.772,-1.236 2.55,-1.975 l -3.273,-3.239 c -0.939,0.814 -1.992,1.471 -3.141,1.956 -1.388,0.588 -2.859,0.9 -4.374,0.929" />
              <path
                 inkscape:connector-curvature="0"
                 id="path218"
                 style="fill:#4b92db;fill-opacity:1;fill-rule:nonzero;stroke:none"
                 d="m 267.651,745.018 c 0,-5.035 -2.497,-7.539 -7.764,-7.539 -5.268,0 -7.704,2.504 -7.704,7.539 l 0,10.073 4.805,0 0,-10.341 c 0,-2.237 0.74,-3.529 2.958,-3.529 2.219,0 3.018,1.292 3.018,3.529 l 0,10.371 4.687,0 0,-10.103" />
              <path
                 inkscape:connector-curvature="0"
                 id="path220"
                 style="fill:#4b92db;fill-opacity:1;fill-rule:nonzero;stroke:none"
                 d="m 269.991,755.121 6.739,0 4.764,-11.079 -0.03,10.989 4.203,0.03 0,-17.107 -6.312,0 -4.766,10.71 0,-10.68 -4.598,0 0,17.137" />
              <path
                 inkscape:connector-curvature="0"
                 id="path222"
                 style="fill:#4b92db;fill-opacity:1;fill-rule:nonzero;stroke:none"
                 d="m 287.948,755.091 4.895,0 0,-17.167 -4.895,0 0,17.167 z" />
              <path
                 inkscape:connector-curvature="0"
                 id="path224"
                 style="fill:#4b92db;fill-opacity:1;fill-rule:nonzero;stroke:none"
                 d="m 300.277,751.438 1.485,0 c 3.086,0 4.787,-1.653 4.787,-4.818 0,-3.482 -1.361,-4.821 -4.787,-4.894 l -1.485,0 0,9.712 z m -4.925,-13.603 7.479,0 c 5.279,0 8.554,3.064 8.554,8.76 0,5.38 -3.226,8.496 -8.554,8.496 l -7.479,0 0,-17.256" />
              <path
                 inkscape:connector-curvature="0"
                 id="path226"
                 style="fill:#4b92db;fill-opacity:1;fill-rule:nonzero;stroke:none"
                 d="m 317.158,746.522 c -0.007,2.577 0.837,5.361 3.507,5.332 2.922,-0.033 3.656,-2.755 3.656,-5.332 0,-2.576 -0.734,-5.509 -3.656,-5.509 -2.848,0 -3.502,3.089 -3.507,5.509 z m -5.074,0 c 0,-5.031 3.099,-9.133 8.581,-9.162 5.676,-0.03 8.58,4.131 8.58,9.162 0,5.032 -3.098,9.044 -8.58,9.044 -5.482,0 -8.581,-4.012 -8.581,-9.044" />
              <path
                 inkscape:connector-curvature="0"
                 id="path228"
                 style="fill:#4b92db;fill-opacity:1;fill-rule:nonzero;stroke:none"
                 d="m 314.223,736.113 c -1.225,-2.27 -2.536,-3.958 -4.335,-5.783 l -3.267,3.318 c 0.731,0.745 1.414,1.626 2.033,2.465 l -1.069,0 c -1.964,-2.659 -4.202,-4.419 -7.132,-5.931 -1.495,-0.771 -3.079,-1.365 -4.71,-1.765 -1.484,-0.365 -3.012,-0.57 -4.552,-0.613 l 0,4.655 c 1.683,0.06 3.335,0.366 4.918,0.913 1.714,0.593 3.468,1.631 4.913,2.741 l -1.426,0 c -1.369,-1.051 -2.155,-1.337 -3.778,-1.899 -1.68,-0.58 -3.442,-0.875 -5.236,-0.875 -1.794,0 -3.556,0.295 -5.236,0.875 -1.623,0.562 -2.189,0.889 -3.778,1.899 l -1.396,0 c 1.445,-1.11 3.169,-2.148 4.883,-2.741 1.686,-0.582 3.449,-0.892 5.245,-0.921 l 0,-4.654 c -1.651,0.022 -3.29,0.229 -4.879,0.62 -1.631,0.4 -3.215,0.994 -4.71,1.765 -2.93,1.512 -5.108,3.272 -7.073,5.931 l -1.173,0 c 0.613,-0.83 1.332,-1.702 2.054,-2.44 l -3.293,-3.293 c -1.778,1.813 -3.027,3.483 -4.241,5.733 l -1.058,-0.034 c 2.361,-4.375 5.855,-8.056 10.104,-10.646 4.373,-2.665 9.404,-4.073 14.551,-4.073 5.147,0 10.178,1.408 14.551,4.073 4.249,2.59 7.768,6.305 10.13,10.68 l -1.04,0 z m -42.363,-6.358 3.294,3.293 c 1.537,-1.453 3.275,-2.691 5.148,-3.658 1.557,-0.803 3.208,-1.421 4.907,-1.839 1.657,-0.407 3.369,-0.623 5.091,-0.645 l 0,-4.654 c -4.885,0.051 -9.652,1.411 -13.805,3.942 -1.674,1.021 -3.227,2.216 -4.635,3.561 z m 32.809,-3.561 c -4.06,-2.474 -8.708,-3.83 -13.478,-3.936 l 0,4.655 c 1.611,0.043 3.211,0.257 4.764,0.638 1.699,0.418 3.35,1.036 4.907,1.839 1.863,0.962 3.592,2.192 5.123,3.635 l 3.267,-3.319 c -1.394,-1.325 -2.929,-2.504 -4.583,-3.512" />
              <path
                 inkscape:connector-curvature="0"
                 id="path230"
                 style="fill:#4b92db;fill-opacity:1;fill-rule:nonzero;stroke:none"
                 d="m 273.564,736.083 c 0.208,0 6.801,0.015 6.801,0.015 0,0 0.579,-0.357 0.817,-0.52 0.223,-0.134 0.341,-0.342 0.535,-0.49 0.044,-0.045 0.074,-0.134 0.044,-0.193 -0.03,-0.03 -0.089,-0.06 -0.089,-0.074 -0.059,-0.238 -0.223,-0.386 -0.416,-0.461 -0.326,-0.133 -0.683,-0.208 -1.024,-0.104 -0.297,0.089 -0.594,0.119 -0.891,0.075 -0.164,-0.015 -0.283,-0.149 -0.431,-0.223 -0.134,-0.06 -0.238,-0.164 -0.386,-0.208 -0.297,-0.074 -0.579,-0.045 -0.876,-0.015 -0.179,0.015 -0.357,0.015 -0.52,0.074 -0.208,0.075 -0.386,0.223 -0.624,0.253 -0.074,0 -0.148,0.015 -0.223,0 -0.059,-0.015 -0.089,-0.074 -0.133,-0.089 -0.134,-0.075 -0.282,-0.104 -0.431,-0.134 -0.089,-0.03 -0.178,-0.015 -0.267,-0.015 -0.104,0.015 -0.208,0.03 -0.297,0.089 -0.149,0.104 -0.253,0.253 -0.386,0.386 -0.06,0.06 -0.015,0.164 -0.06,0.223 -0.208,0.342 -0.46,0.579 -0.772,0.832 -0.148,0.119 -0.327,0.282 -0.297,0.49 m 1.322,-0.505 c 0,-0.104 -0.015,-0.193 0.015,-0.297 0.015,-0.015 0.029,-0.045 0.029,-0.059 0.015,-0.045 0.03,-0.09 0.045,-0.134 0.059,-0.074 0.119,-0.119 0.193,-0.119 0.163,-0.03 0.312,-0.045 0.475,0 0.045,0.015 0.074,0.059 0.074,0.074 0.045,0.134 0.03,0.282 0,0.416 -0.014,0.045 -0.044,0.089 -0.074,0.104 -0.059,0.03 -0.059,0.089 -0.104,0.089 -0.223,0.015 -0.445,0.045 -0.668,0" />
              <path
                 inkscape:connector-curvature="0"
                 id="path232"
                 style="fill:#4b92db;fill-opacity:1;fill-rule:nonzero;stroke:none"
                 d="m 275.197,730.143 c 0.089,-0.015 0.149,0.015 0.208,0.074 0.06,0.089 0.193,0.074 0.268,0.03 0.237,-0.119 0.252,-0.446 0.193,-0.683 -0.015,-0.074 -0.119,-0.06 -0.193,-0.074 -0.09,-0.03 -0.223,-0.06 -0.268,0.014 -0.119,0.149 -0.193,0.342 -0.208,0.535" />
              <path
                 inkscape:connector-curvature="0"
                 id="path234"
                 style="fill:#4b92db;fill-opacity:1;fill-rule:nonzero;stroke:none"
                 d="m 287.449,731.851 c 0,0.148 -0.03,0.311 -0.015,0.46 0.104,-0.03 0.178,0.104 0.267,0.059 0.104,-0.059 0.089,-0.193 0.178,-0.267 0.045,-0.044 0.03,-0.148 0,-0.163 -0.089,-0.075 -0.237,-0.089 -0.356,-0.104" />
              <path
                 inkscape:connector-curvature="0"
                 id="path236"
                 style="fill:#4b92db;fill-opacity:1;fill-rule:nonzero;stroke:none"
                 d="m 302.997,731.672 c -0.075,0.134 -0.149,0.283 -0.208,0.416 -0.089,0.253 -0.06,0.535 -0.015,0.802 0.03,0.104 0.015,0.223 0.059,0.327 0.03,0.074 0.015,0.148 0.03,0.223 0.03,0.133 0.074,0.252 0.089,0.386 0.03,0.208 0.015,0.401 0,0.594 -0.015,0.178 -0.119,0.341 -0.238,0.46 -0.103,0.119 -0.103,0.238 -0.207,0.356 -0.015,0.03 -0.119,0.134 -0.134,0.164 -0.03,0.029 -0.045,-0.015 -0.059,0.015 -0.045,0.148 -0.119,0.252 -0.179,0.386 -0.044,0.074 -0.133,0.119 -0.163,0.193 0,0.044 -0.03,0.074 -0.045,0.104 l -15.176,0 0.074,-0.104 c -0.015,-0.208 0.03,-0.401 0.089,-0.594 0.03,-0.06 0.015,-0.119 0.045,-0.178 0.074,-0.149 0.222,-0.431 0.326,-0.55 0.193,-0.267 0.357,-0.327 0.609,-0.534 0.104,-0.09 0.267,-0.357 0.386,-0.416 0.297,-0.164 0.475,-0.134 0.758,-0.312 0.297,-0.178 0.608,-0.238 0.92,-0.342 0.282,-0.104 0.579,-0.133 0.862,-0.148 0.579,-0.03 1.128,-0.015 1.707,-0.104 0.104,-0.015 0.193,-0.06 0.297,-0.06 0.193,-0.029 0.4,-0.02 0.58,-0.074 0.148,-0.044 0.356,-0.163 0.475,-0.252 0.222,-0.134 0.282,-0.357 0.356,-0.579 0.059,-0.238 0.015,-0.297 0.059,-0.55 0.015,-0.044 0,-0.49 0.015,-0.534 0.06,-0.283 0.06,-0.149 0.075,-0.431 0.014,-0.193 0.014,-0.386 0.118,-0.564 0.104,-0.193 0.357,-0.179 0.55,-0.297 0.015,-0.015 0.015,-0.045 0.03,-0.06 0.014,-0.015 0.044,-0.03 0.059,-0.044 0.03,-0.045 0.044,-0.104 0.074,-0.149 0.119,-0.104 0.297,-0.133 0.371,-0.282 0,-0.015 0,-0.044 0,-0.059 0.104,-0.104 0.179,-0.223 0.342,-0.223 -0.03,-0.178 0.193,-0.267 0.327,-0.312 0.193,-0.074 0.416,-0.119 0.549,-0.267 0.119,-0.119 0.253,-0.223 0.401,-0.297 0.104,-0.06 0.223,-0.03 0.327,-0.03 0,-0.03 -0.015,-0.089 0,-0.089 0.104,-0.074 0.208,-0.149 0.312,-0.178 0.222,-0.06 0.46,-0.134 0.683,-0.06 0.059,0.015 0.119,0.119 0.178,0.149 0.148,0.044 0.238,0.193 0.371,0.267 0.238,0.119 0.49,0.193 0.728,0.312 0.104,0.059 0.193,0.163 0.297,0.208 0.163,0.074 0.237,0.089 0.401,0.163 0.059,0.015 0.163,0.134 0.223,0.134 0.029,0.015 0.059,0.03 0.089,0.059 0.029,0.015 0.074,-0.015 0.104,0.015 0.118,0.119 0.356,0.267 0.445,0.416 0.074,0.119 0.015,0.223 0.074,0.356 0.015,0.03 0.075,0.045 0.089,0.075 0,0.014 0,0.044 0,0.059 0.045,0.074 0.119,0.119 0.119,0.193 0.015,0.104 0.06,0.193 0.134,0.267 0.356,0.401 0.787,0.698 1.114,1.144 0.089,0.119 0.178,0.267 0.104,0.43 z m -12.95,1.857 c -0.104,-0.045 -0.267,-0.03 -0.401,-0.015 -0.014,0.015 -0.029,0.03 -0.044,0.044 -0.015,0.03 0,0.075 0,0.104 l 0.059,0.075 c 0.134,-0.015 0.282,0.014 0.416,0.014 0,-0.074 0.03,-0.193 -0.03,-0.222 z m 2.198,0.089 c -0.015,0 -0.044,0 -0.059,0 -0.074,-0.045 -0.134,-0.089 -0.208,-0.104 -0.193,-0.03 -0.386,-0.104 -0.564,0.015 -0.015,0.015 -0.03,0.059 -0.015,0.104 l 0.015,0.089 c 0.118,0.029 0.222,0.015 0.341,0.044 0.149,0.045 0.312,0.03 0.46,0 0.045,0 0.075,-0.104 0.03,-0.148" />
              <path
                 inkscape:connector-curvature="0"
                 id="path238"
                 style="fill:#4b92db;fill-opacity:1;fill-rule:nonzero;stroke:none"
                 d="m 303.427,736.127 2.599,-0.029 c 0.282,-0.862 0.193,-1.663 0.193,-1.738 0,-0.074 -1.025,-1.054 -1.025,-1.054 0,0 0.104,0.238 -0.178,0.505 -0.282,0.267 -0.386,0.163 -0.52,0.49 -0.133,0.327 0.015,0.624 -0.118,0.817 -0.134,0.193 -0.951,1.009 -0.951,1.009" />
              <path
                 inkscape:connector-curvature="0"
                 id="path240"
                 style="fill:#4b92db;fill-opacity:1;fill-rule:nonzero;stroke:none"
                 d="m 312.545,736.113 0.876,0 c 0,0 -0.059,-0.193 -0.193,-0.268 -0.133,-0.074 -0.282,-0.015 -0.371,0" />
              <path
                 inkscape:connector-curvature="0"
                 id="path242"
                 style="fill:#4b92db;fill-opacity:1;fill-rule:nonzero;stroke:none"
                 d="m 303.13,770.193 c 0,0.03 0.03,0.045 0.03,0.06 0.178,0.029 0.356,0.059 0.535,-0.015 0.044,-0.015 0.103,-0.045 0.133,-0.089 0.03,-0.074 0.03,-0.149 0.074,-0.223 0.03,-0.059 0.03,-0.134 0.015,-0.208 -0.029,-0.104 -0.148,-0.089 -0.237,-0.104 -0.179,-0.044 -0.372,-0.059 -0.55,-0.015 -0.074,0.03 -0.029,0.179 -0.089,0.282 -0.044,0.045 -0.03,0.149 0,0.223 0,0.03 0.089,0.03 0.089,0.089" />
              <path
                 inkscape:connector-curvature="0"
                 id="path244"
                 style="fill:#4b92db;fill-opacity:1;fill-rule:nonzero;stroke:none"
                 d="m 305.001,760.318 c 0,0.045 0,0.074 0,0.119 0.06,-0.015 0.104,0 0.149,0.03 l 0,0.029 c 0.044,0.03 0.089,0.06 0.134,0.045 0.074,-0.03 0.089,-0.104 0.133,-0.164 0.045,-0.089 0.045,-0.207 0,-0.267 -0.059,-0.074 -0.193,-0.074 -0.282,-0.029 -0.089,0.044 -0.148,0.163 -0.119,0.282" />
              <path
                 inkscape:connector-curvature="0"
                 id="path246"
                 style="fill:#4b92db;fill-opacity:1;fill-rule:nonzero;stroke:none"
                 d="m 303.219,759.338 c -0.059,-0.089 -0.118,-0.149 -0.178,-0.252 0,-10e-4 -0.015,-0.015 -0.03,-0.03 -0.014,-0.015 0,-0.06 -0.014,-0.074 -0.045,-0.045 -0.089,-0.09 -0.104,-0.134 -0.075,-0.193 -0.238,-0.327 -0.357,-0.49 -0.148,-0.193 -0.089,-0.446 -0.059,-0.683 0,-0.06 0.074,-0.104 0.134,-0.134 0.044,-0.03 0.103,-0.03 0.148,-0.044 0.163,-0.045 0.371,-0.104 0.475,0.074 0.015,0.03 0.015,0.074 0.03,0.119 0.03,0.044 0.104,0.089 0.104,0.148 0.015,0.134 0.104,0.238 0.148,0.371 0.015,0.075 0.075,0.149 0.119,0.223 0.074,0.149 0.045,0.312 0.015,0.475 -0.03,0.149 -0.089,0.297 -0.208,0.401 -0.03,0.03 -0.104,0.015 -0.163,0.015" />
              <path
                 inkscape:connector-curvature="0"
                 id="path248"
                 style="fill:#4b92db;fill-opacity:1;fill-rule:nonzero;stroke:none"
                 d="m 303.902,757.036 c 0,0.074 -0.014,0.164 0.03,0.223 0.119,0.104 0.282,0.178 0.342,0.312 0.089,0.163 0.029,0.356 0.089,0.534 0.029,0.104 0.074,0.208 0.074,0.312 0.03,0.268 -0.015,0.535 0.03,0.802 0,0 0.089,0.015 0.119,-0.015 0.089,-0.074 0.163,-0.163 0.267,-0.208 0.178,-0.104 0.371,-0.133 0.549,-0.207 0.045,-0.015 0.119,-0.015 0.134,0.014 0.074,0.06 0.015,0.193 0.059,0.268 0.089,0.148 0.253,0.252 0.431,0.193 0.134,-0.045 0.252,-0.134 0.312,-0.238 0.178,-0.356 0.43,-0.742 0.252,-1.128 -0.015,-0.015 -0.074,-0.06 -0.119,-0.06 -0.148,0 -0.297,-0.03 -0.43,0.015 -0.074,0.015 -0.149,0.03 -0.223,0.045 -0.059,0.014 -0.148,0.044 -0.163,0 -0.074,-0.164 -0.045,-0.357 -0.015,-0.535 0,-0.059 0.059,-0.134 0.089,-0.178 0.059,-0.104 0.119,-0.253 0.059,-0.386 -0.594,0 -1.173,-0.03 -1.767,0.014 -0.044,0 -0.089,0.075 -0.104,0.149" />
              <path
                 inkscape:connector-curvature="0"
                 id="path250"
                 style="fill:#4b92db;fill-opacity:1;fill-rule:nonzero;stroke:none"
                 d="m 310.927,758.967 c -0.075,-0.223 -0.134,-0.431 -0.194,-0.654 -0.029,-0.089 -0.083,-0.616 -0.163,-0.564 -0.431,0.282 -0.995,0.03 -1.47,0.342 -0.045,0.044 -0.252,-0.015 -0.297,0.029 -0.386,0.268 -0.564,0.505 -0.817,0.906 -0.089,0.149 -0.193,0.282 -0.326,0.416 -0.223,0.193 -0.416,0.208 -0.684,0.282 -0.178,0.193 -0.401,0.297 -0.519,0.535 -0.075,0.148 -0.149,0.312 -0.327,0.386 -0.178,0.074 -0.356,0.148 -0.52,0.282 -0.163,0.134 -0.341,0.223 -0.475,0.401 -0.134,0.134 -0.342,0 -0.505,0.089 -0.223,0.089 -0.401,0.342 -0.638,0.401 -0.104,0.03 -0.208,0.03 -0.297,0 -0.179,-0.059 -0.297,-0.238 -0.387,-0.401 -0.014,-0.045 -0.014,-0.089 0,-0.134 0.03,-0.059 0.075,-0.118 0.075,-0.178 0.029,-0.163 0.074,-0.297 0.133,-0.431 0.104,-0.222 0.238,-0.43 0.386,-0.653 0.119,-0.148 0.253,-0.267 0.342,-0.416 0.045,-0.074 0.119,-0.133 0.148,-0.208 0,-0.044 0.015,-0.089 0.045,-0.133 0.03,0.044 0.045,-0.015 0.074,-0.015 l -0.104,-0.074 c 0,-0.045 0.015,-0.104 0,-0.104 -0.089,-0.045 -0.208,-0.03 -0.312,0.015 -0.118,0.044 -0.207,0.133 -0.297,0.237 0,0.015 0,0.045 -0.014,0.06 -0.06,0.074 -0.119,0.133 -0.179,0.207 -0.178,0.223 -0.415,0.357 -0.579,0.609 -0.074,0.134 -0.163,0.268 -0.208,0.416 -0.074,0.238 -4.677,3.549 -4.811,3.653 -0.208,0.164 -0.49,0.312 -0.475,0.594 0.104,0 0.208,0 0.312,-0.015 0.118,-0.029 0.252,-0.044 0.371,0 0.089,0.045 0.148,0.179 0.237,0.238 0.238,0.134 0.476,0.208 0.728,0.223 0.178,0.015 0.357,0.044 0.535,-0.015 0.119,-0.03 0.252,-0.06 0.341,-0.149 0.268,-0.252 0.446,-0.564 0.758,-0.727 0.133,-0.06 0.282,-0.03 0.415,-0.03 0.075,0.193 0.015,0.416 0.03,0.624 -0.223,0.297 -0.356,0.653 -0.416,1.024 0,0.045 -0.029,0.089 -0.044,0.134 0,0.059 0,0.134 -0.03,0.193 -0.104,0.178 -0.208,0.371 -0.341,0.535 -0.194,0.237 -0.52,0.311 -0.684,0.579 -0.103,0.178 -0.193,0.371 -0.237,0.594 -0.03,0.089 -0.045,0.163 -0.045,0.237 -0.029,0.297 -0.029,0.609 0,0.906 0.015,0.134 0.104,0.253 0.223,0.312 0.134,0.074 0.297,0.015 0.446,0.03 0.059,0.015 0.089,0.074 0.163,0.074 l 0,-0.045 c 0.742,-0.059 1.485,0.015 2.227,-0.044 0.164,-0.015 0.357,-0.03 0.476,-0.149 0.133,-0.104 0.222,-0.252 0.371,-0.341 0.223,-0.134 0.46,-0.253 0.713,-0.312 0.252,-0.045 0.475,-0.178 0.623,-0.371 0.179,-0.208 0.312,-0.431 0.52,-0.624 0.06,-0.074 0.104,-0.148 0.149,-0.223 0.074,-0.148 0.044,-0.326 0.148,-0.445 0.163,-0.223 0.357,-0.386 0.535,-0.579 0.237,-0.253 1.143,-1.901 1.366,-2.02 0.208,-0.119 0.416,-0.252 0.549,-0.46 0.03,-0.06 0.075,-0.134 0.119,-0.193 0.089,-0.075 0.178,-0.149 0.282,-0.208 0.104,-0.089 0.119,-0.223 0.179,-0.342 0.059,-0.133 0.148,-0.252 0.222,-0.386 0.045,-0.059 0.104,-0.119 0.119,-0.178 0.03,-0.074 0.015,-0.149 0.045,-0.223 0.014,-0.059 0.059,-0.133 0.089,-0.193 0.104,-0.193 0.222,-0.371 0.356,-0.564 0.015,-0.03 0.045,-0.045 0.074,-0.06 0.238,-0.311 0.401,-0.623 0.609,-0.95 0.045,-0.074 0.193,-0.297 0.253,-0.327 0.193,-0.089 0.297,-0.222 0.475,-0.326 0.074,-0.253 0.252,-0.268 0.282,-0.535 0.03,-0.193 -0.089,-0.371 -0.148,-0.564 z m -8.584,5.123 c -0.163,0.045 -0.208,-0.149 -0.252,-0.252 -0.045,-0.09 -0.045,-0.223 0,-0.312 0.059,-0.164 0.208,-0.282 0.312,-0.446 0.059,-0.104 0.089,-0.237 0.178,-0.282 0.089,-0.045 0.193,-0.03 0.282,0 0.03,0 0.074,0 0.104,0.015 0.044,0.03 0.089,0.074 0.148,0.104 0.045,0.03 0.06,0.089 0.089,0.134 0.104,0.118 0.238,0.207 0.342,0.326 0.059,0.03 0.089,0.104 0.104,0.164 0.059,0.178 0.059,0.386 0.015,0.564 -0.03,0.074 -0.149,0.119 -0.238,0.148 -0.208,0.089 -0.43,-0.029 -0.653,-0.044 -0.074,0 -0.178,0 -0.253,-0.074 -0.044,-0.03 -0.089,-0.015 -0.133,-0.015" />
              <path
                 inkscape:connector-curvature="0"
                 id="path252"
                 style="fill:#4b92db;fill-opacity:1;fill-rule:nonzero;stroke:none"
                 d="m 295.943,766.837 c 0,0.104 -0.015,0.223 0,0.327 0.015,0.059 0.059,0.119 0.119,0.148 0.059,0.03 0.133,0.075 0.193,0.075 0.193,0.029 0.43,0.074 0.534,-0.134 0.015,-0.03 0.015,-0.074 0.015,-0.104 0.06,-0.312 0.045,-0.609 0.015,-0.906 -0.148,-0.104 -0.356,-0.119 -0.49,0.015 -0.059,0.06 -0.089,0.104 -0.134,0.178 -0.044,0.045 -0.118,0.06 -0.148,0.119 -0.03,0.06 -0.06,0.119 -0.045,0.193" />
              <path
                 inkscape:connector-curvature="0"
                 id="path254"
                 style="fill:#4b92db;fill-opacity:1;fill-rule:nonzero;stroke:none"
                 d="m 294.339,769.065 c 0.028,0.045 0.074,0.029 0.104,0.029 0.178,0.03 0.371,0.03 0.549,-0.029 0.208,-0.06 0.416,0 0.624,0 0.149,-0.193 0.074,-0.446 0.06,-0.669 0,-0.059 -0.075,-0.104 -0.104,-0.193 -0.015,-0.089 -0.104,-0.104 -0.179,-0.118 -0.178,-0.045 -0.356,-0.045 -0.534,0 -0.268,0.044 -0.446,0.267 -0.52,0.519 0,0.045 -0.015,0.089 -0.015,0.119 -0.015,0.119 -0.059,0.223 0.015,0.342" />
              <path
                 inkscape:connector-curvature="0"
                 id="path256"
                 style="fill:#4b92db;fill-opacity:1;fill-rule:nonzero;stroke:none"
                 d="m 290.834,769.807 c 0.03,-0.044 0.06,-0.119 0.104,-0.133 0.119,-0.06 0.268,-0.06 0.357,-0.149 0.015,-0.015 0.015,-0.074 0.044,-0.104 0.075,-0.119 0.119,-0.237 0.075,-0.371 -0.015,-0.045 -0.104,-0.06 -0.149,-0.104 -0.163,-0.134 -0.386,-0.49 -0.579,-0.223 -0.03,0.03 -0.03,0.074 -0.03,0.119 -0.015,0.267 -0.059,0.549 0.074,0.802" />
              <path
                 inkscape:connector-curvature="0"
                 id="path258"
                 style="fill:#4b92db;fill-opacity:1;fill-rule:nonzero;stroke:none"
                 d="m 287.3,768.723 c 0.015,0.015 0.045,0.045 0.06,0.06 0.178,0 0.326,0.089 0.49,0.133 0.133,0.03 0.282,0.06 0.371,0 0.267,-0.178 0.282,-0.609 0.03,-0.817 -0.223,0 -0.461,-0.014 -0.684,0.015 -0.148,0.015 -0.163,0.178 -0.222,0.282 -0.03,0.06 -0.119,0.104 -0.149,0.164 -0.059,0.104 0.074,0.148 0.149,0.163" />
              <path
                 inkscape:connector-curvature="0"
                 id="path260"
                 style="fill:#4b92db;fill-opacity:1;fill-rule:nonzero;stroke:none"
                 d="m 289.245,771.812 c 0.104,0 0.208,-0.03 0.297,0.015 0.164,0.089 0.342,0.163 0.461,0.312 0.074,0.089 0.148,0.163 0.178,0.252 0.149,0.357 0.163,0.757 0.356,1.084 0.09,0.178 0.357,0.164 0.476,0.015 0.43,-0.074 0.891,-0.015 1.336,-0.03 0.297,-0.222 0.564,-0.475 0.758,-0.802 0.059,-0.118 0.044,-0.267 0.103,-0.401 0.119,-0.237 0.327,-0.4 0.461,-0.638 0.044,-0.074 0.044,-0.223 -0.015,-0.312 -0.149,-0.148 -0.327,-0.252 -0.52,-0.297 -0.178,-0.044 -0.356,-0.015 -0.534,-0.044 -0.06,0 -0.134,-0.015 -0.193,-0.03 -0.134,-0.015 -0.253,0 -0.387,-0.03 -0.282,-0.03 -0.549,-0.119 -0.831,-0.193 -0.178,-0.059 -0.327,-0.193 -0.401,-0.371 -0.015,-0.045 -0.06,-0.119 -0.119,-0.134 -0.134,-0.015 -0.282,-0.03 -0.416,0.03 -0.044,0.015 -0.074,0.074 -0.118,0.104 -0.268,0.178 -0.565,0.267 -0.817,0.46 -0.045,0.178 -0.045,0.342 -0.015,0.52 0.015,0.134 0.089,0.238 0.163,0.356 m 1.619,0.461 c -0.03,-0.03 -0.089,-0.015 -0.089,-0.03 -0.03,-0.045 -0.03,-0.134 0.015,-0.134 0.267,-0.029 0.534,-0.059 0.802,0.015 0.014,0 -0.015,0.06 -0.015,0.089 -0.015,0 -0.03,0 -0.03,0 -0.074,0.282 -0.46,0.119 -0.668,0.164" />
              <path
                 inkscape:connector-curvature="0"
                 id="path262"
                 style="fill:#4b92db;fill-opacity:1;fill-rule:nonzero;stroke:none"
                 d="m 293.374,773.342 c 0,0.074 -0.03,0.178 0.03,0.237 0.029,0.03 0.074,0.089 0.118,0.119 0.06,0.03 0.119,0.03 0.179,0.059 0.207,0.119 0.371,0.327 0.608,0.357 0.461,0.059 1.01,0.208 1.352,-0.178 0.148,-0.149 0.104,-0.401 -0.06,-0.52 -0.163,-0.119 -0.326,-0.164 -0.519,-0.193 -0.03,-0.015 -0.06,-0.045 -0.09,-0.045 -0.089,-0.015 -0.178,-0.03 -0.267,-0.059 -0.356,-0.119 -0.728,-0.164 -1.099,-0.089 -0.133,0.015 -0.208,0.163 -0.208,0.297" />
              <path
                 inkscape:connector-curvature="0"
                 id="path264"
                 style="fill:#4b92db;fill-opacity:1;fill-rule:nonzero;stroke:none"
                 d="m 294.844,775.406 c 0,0.044 -0.015,0.089 0.03,0.104 0.074,0 0.163,0.059 0.208,0 0.059,-0.075 0.059,-0.179 0.014,-0.238 -0.074,-0.119 -0.222,-0.03 -0.282,0.074" />
              <path
                 inkscape:connector-curvature="0"
                 id="path266"
                 style="fill:#4b92db;fill-opacity:1;fill-rule:nonzero;stroke:none"
                 d="m 296.463,775.124 c 0,0.059 -0.015,0.118 0.014,0.148 0.075,0.089 0.208,0.045 0.327,0.045 0.03,0 0.06,-0.045 0.06,-0.075 0.044,-0.133 0.044,-0.267 0.014,-0.401 0,-0.059 -0.074,-0.089 -0.104,-0.133 -0.029,-0.06 -0.118,-0.03 -0.193,-0.03 -0.059,0.015 -0.104,0.074 -0.148,0.119 -0.045,0.074 -0.03,0.163 -0.03,0.237" />
              <path
                 inkscape:connector-curvature="0"
                 id="path268"
                 style="fill:#4b92db;fill-opacity:1;fill-rule:nonzero;stroke:none"
                 d="m 280.722,766.486 c 0.138,0.099 0.336,0.099 0.455,0.039 0.099,-0.039 0.139,-0.237 0.04,-0.316 -0.099,-0.119 -0.297,-0.179 -0.416,-0.099 -0.06,0.039 -0.02,0.158 -0.02,0.257" />
            </g>
          </g>
        </g>
      </g>
    </g>
  </g>
</svg>
